<?xml version="1.0" encoding="UTF-8"?>
<!DOCTYPE svg PUBLIC "-//W3C//DTD SVG 1.1//EN" "http://www.w3.org/Graphics/SVG/1.1/DTD/svg11.dtd">
<svg xmlns="http://www.w3.org/2000/svg" version="1.1" width="474px" height="474px" style="shape-rendering:geometricPrecision; text-rendering:geometricPrecision; image-rendering:optimizeQuality; fill-rule:evenodd; clip-rule:evenodd" xmlns:xlink="http://www.w3.org/1999/xlink">
<g><path style="opacity:1" fill="#fcfdfd" d="M -0.5,-0.5 C 157.5,-0.5 315.5,-0.5 473.5,-0.5C 473.5,157.5 473.5,315.5 473.5,473.5C 315.5,473.5 157.5,473.5 -0.5,473.5C -0.5,315.5 -0.5,157.5 -0.5,-0.5 Z"/></g>
<g><path style="opacity:1" fill="#ebfafd" d="M 311.5,40.5 C 308.833,39.5 306.167,38.5 303.5,37.5C 278.487,24.9366 251.82,19.7699 223.5,22C 214.334,22.7689 205.334,24.2689 196.5,26.5C 196.5,24.8333 196.5,23.1667 196.5,21.5C 194.712,21.7852 193.045,21.4519 191.5,20.5C 192.167,20.1667 192.833,19.8333 193.5,19.5C 199.84,22.2926 206.507,23.1259 213.5,22C 215.277,20.196 217.444,19.3627 220,19.5C 228.529,20.7567 237.029,20.7567 245.5,19.5C 252.722,21.0777 260.056,21.9111 267.5,22C 274.054,22.7244 280.221,24.5577 286,27.5C 289.507,25.9353 292.674,26.4353 295.5,29C 295.043,29.414 294.709,29.914 294.5,30.5C 299.254,33.1435 304.254,35.3102 309.5,37C 310.823,37.8159 311.489,38.9826 311.5,40.5 Z"/></g>
<g><path style="opacity:1" fill="#69a9db" d="M 303.5,37.5 C 300.993,37.1954 298.326,37.0287 295.5,37C 292.93,34.5407 289.93,33.5407 286.5,34C 281.72,38.4024 277.054,42.9024 272.5,47.5C 271.479,46.9984 271.312,46.3317 272,45.5C 276.5,41 281,36.5 285.5,32C 282.833,31.3333 280.167,31.3333 277.5,32C 275.667,33.8333 273.833,35.6667 272,37.5C 271.37,35.0966 272.203,33.2633 274.5,32C 273.552,31.5172 272.552,31.3505 271.5,31.5C 271.5,30.5 271.5,29.5 271.5,28.5C 260.906,27.0216 250.239,26.0216 239.5,25.5C 239.5,26.8333 239.5,28.1667 239.5,29.5C 234.167,29.5 228.833,29.5 223.5,29.5C 223.5,28.5 223.5,27.5 223.5,26.5C 219.113,26.8626 214.78,27.5292 210.5,28.5C 208.571,28.4604 206.738,28.1271 205,27.5C 197.873,28.9703 190.706,30.3037 183.5,31.5C 187.557,29.071 191.891,27.4043 196.5,26.5C 205.334,24.2689 214.334,22.7689 223.5,22C 251.82,19.7699 278.487,24.9366 303.5,37.5 Z"/></g>
<g><path style="opacity:1" fill="#74a7cf" d="M 303.5,37.5 C 306.167,38.5 308.833,39.5 311.5,40.5C 320.03,45.3552 328.03,51.0219 335.5,57.5C 332.039,56.2694 328.706,54.7694 325.5,53C 318.175,47.5319 310.841,42.3652 303.5,37.5 Z"/></g>
<g><path style="opacity:1" fill="#89b5da" d="M 86.5,137.5 C 83.9773,152.733 82.3106,168.066 81.5,183.5C 79.9107,167.838 81.5773,152.505 86.5,137.5 Z"/></g>
<g><path style="opacity:1" fill="#5ca8e4" d="M 303.5,37.5 C 310.841,42.3652 318.175,47.5319 325.5,53C 328.706,54.7694 332.039,56.2694 335.5,57.5C 364.443,81.5666 382.443,112.233 389.5,149.5C 390.501,165.178 390.501,180.844 389.5,196.5C 386.312,208.233 382.812,219.9 379,231.5C 374.886,238.729 371.053,246.063 367.5,253.5C 344.189,295.147 317.189,334.147 286.5,370.5C 284.533,370.261 282.699,370.594 281,371.5C 280.43,375.334 278.43,378.001 275,379.5C 273.702,380.946 273.535,382.279 274.5,383.5C 273.585,385.928 272.418,388.261 271,390.5C 260.972,400.695 251.472,411.361 242.5,422.5C 240.465,424.372 238.298,426.039 236,427.5C 232.383,423.719 228.55,420.052 224.5,416.5C 215.455,405.298 206.288,394.298 197,383.5C 195.288,381.948 193.455,380.615 191.5,379.5C 191.5,379.167 191.5,378.833 191.5,378.5C 188.246,372.731 184.079,367.398 179,362.5C 154.381,330.379 131.381,297.046 110,262.5C 101.621,246.675 94.2874,230.342 88,213.5C 84.6495,203.72 82.4829,193.72 81.5,183.5C 82.3106,168.066 83.9773,152.733 86.5,137.5C 94.4096,106.827 110.076,80.994 133.5,60C 143.617,51.8858 154.284,44.5525 165.5,38C 171.439,35.5242 177.439,33.3575 183.5,31.5C 190.706,30.3037 197.873,28.9703 205,27.5C 206.738,28.1271 208.571,28.4604 210.5,28.5C 214.78,27.5292 219.113,26.8626 223.5,26.5C 223.5,27.5 223.5,28.5 223.5,29.5C 228.833,29.5 234.167,29.5 239.5,29.5C 239.5,28.1667 239.5,26.8333 239.5,25.5C 250.239,26.0216 260.906,27.0216 271.5,28.5C 271.5,29.5 271.5,30.5 271.5,31.5C 272.552,31.3505 273.552,31.5172 274.5,32C 272.203,33.2633 271.37,35.0966 272,37.5C 273.833,35.6667 275.667,33.8333 277.5,32C 280.167,31.3333 282.833,31.3333 285.5,32C 281,36.5 276.5,41 272,45.5C 271.312,46.3317 271.479,46.9984 272.5,47.5C 277.054,42.9024 281.72,38.4024 286.5,34C 289.93,33.5407 292.93,34.5407 295.5,37C 298.326,37.0287 300.993,37.1954 303.5,37.5 Z"/></g>
<g><path style="opacity:1" fill="#66bafc" d="M 220.5,51.5 C 237.734,50.6001 254.734,52.1001 271.5,56C 278.862,58.6853 286.195,61.352 293.5,64C 295.647,66.2368 297.98,68.2368 300.5,70C 306.984,73.0131 313.317,76.1798 319.5,79.5C 319.343,80.8734 319.51,82.2068 320,83.5C 324.167,87 328,90.8333 331.5,95C 332.793,95.49 334.127,95.6567 335.5,95.5C 335.338,97.5273 335.505,99.5273 336,101.5C 338.333,103.833 340.667,106.167 343,108.5C 343.256,111.557 343.756,114.557 344.5,117.5C 347.143,118.976 349.31,120.976 351,123.5C 355.428,135.208 358.928,147.208 361.5,159.5C 362.776,174.215 362.276,188.882 360,203.5C 355.471,215.519 351.304,227.519 347.5,239.5C 346.325,239.281 345.325,239.614 344.5,240.5C 342.123,246.986 338.123,251.986 332.5,255.5C 332.762,256.978 332.429,258.311 331.5,259.5C 327.843,262.826 324.51,266.492 321.5,270.5C 315.307,275.527 308.974,280.36 302.5,285C 292.544,289.968 282.211,294.468 271.5,298.5C 249.617,304.797 227.617,305.13 205.5,299.5C 197.273,297.148 189.273,294.314 181.5,291C 177.613,287.889 173.28,285.556 168.5,284C 167.036,280.46 164.369,278.627 160.5,278.5C 159.614,277.675 159.281,276.675 159.5,275.5C 158.448,275.649 157.448,275.483 156.5,275C 116.518,239.019 102.851,194.519 115.5,141.5C 119.081,131.061 123.414,121.061 128.5,111.5C 132.159,107.336 135.659,103.003 139,98.5C 139.483,97.552 139.649,96.552 139.5,95.5C 140.833,95.5 142.167,95.5 143.5,95.5C 143.34,93.8008 143.506,92.1341 144,90.5C 148.458,87.7095 152.292,84.2095 155.5,80C 156.793,79.51 158.127,79.3433 159.5,79.5C 159.5,78.1667 159.5,76.8333 159.5,75.5C 166.33,73.0808 172.664,69.5808 178.5,65C 192.054,58.929 206.054,54.429 220.5,51.5 Z"/></g>
<g><path style="opacity:1" fill="#e2c45e" d="M 258.5,103.5 C 268.167,103.5 277.833,103.5 287.5,103.5C 287.5,103.833 287.5,104.167 287.5,104.5C 281.167,104.5 274.833,104.5 268.5,104.5C 268.5,106.833 268.5,109.167 268.5,111.5C 267.167,111.5 265.833,111.5 264.5,111.5C 264.5,109.5 264.5,107.5 264.5,105.5C 263.167,105.5 261.833,105.5 260.5,105.5C 261.792,119.507 261.792,133.507 260.5,147.5C 261.833,147.5 263.167,147.5 264.5,147.5C 264.5,146.167 264.5,144.833 264.5,143.5C 265.833,143.5 267.167,143.5 268.5,143.5C 268.5,144.833 268.5,146.167 268.5,147.5C 276.833,147.5 285.167,147.5 293.5,147.5C 293.347,154.684 294.014,161.684 295.5,168.5C 293.5,168.5 291.5,168.5 289.5,168.5C 288.833,165.5 288.167,162.5 287.5,159.5C 279.648,159.001 273.982,162.334 270.5,169.5C 264.328,166.457 261.828,161.457 263,154.5C 262.329,153.748 261.496,153.414 260.5,153.5C 260.005,151.518 259.505,149.518 259,147.5C 258.5,135.505 258.333,123.505 258.5,111.5C 258.5,108.833 258.5,106.167 258.5,103.5 Z"/></g>
<g><path style="opacity:1" fill="#e0bb5d" d="M 293.5,147.5 C 294.833,147.5 296.167,147.5 297.5,147.5C 297.338,149.527 297.505,151.527 298,153.5C 298.671,154.252 299.504,154.586 300.5,154.5C 299.987,158.879 299.153,163.213 298,167.5C 295.351,169.984 292.851,172.65 290.5,175.5C 275.215,180.297 265.548,174.964 261.5,159.5C 261.483,157.435 261.15,155.435 260.5,153.5C 261.496,153.414 262.329,153.748 263,154.5C 261.828,161.457 264.328,166.457 270.5,169.5C 273.982,162.334 279.648,159.001 287.5,159.5C 288.167,162.5 288.833,165.5 289.5,168.5C 291.5,168.5 293.5,168.5 295.5,168.5C 294.014,161.684 293.347,154.684 293.5,147.5 Z"/></g>
<g><path style="opacity:1" fill="#98423d" d="M 142.5,147.5 C 151.167,147.5 159.833,147.5 168.5,147.5C 169.434,148.568 169.768,149.901 169.5,151.5C 167.902,157.92 165.736,164.254 163,170.5C 161.174,173.508 158.674,175.508 155.5,176.5C 152.833,176.167 150.167,175.833 147.5,175.5C 146.167,175.5 144.833,175.5 143.5,175.5C 143.6,172.892 142.933,170.558 141.5,168.5C 141.175,161.313 141.509,154.313 142.5,147.5 Z"/></g>
<g><path style="opacity:1" fill="#ca6548" d="M 258.5,111.5 C 258.333,123.505 258.5,135.505 259,147.5C 259.505,149.518 260.005,151.518 260.5,153.5C 261.15,155.435 261.483,157.435 261.5,159.5C 260.167,159.5 258.833,159.5 257.5,159.5C 257.915,163.375 257.415,167.042 256,170.5C 255.503,167.854 255.336,165.187 255.5,162.5C 255.868,157.443 256.535,152.443 257.5,147.5C 255.674,135.619 255.008,123.619 255.5,111.5C 256.5,111.5 257.5,111.5 258.5,111.5 Z"/></g>
<g><path style="opacity:1" fill="#98413c" d="M 220.5,147.5 C 221.5,147.5 222.5,147.5 223.5,147.5C 234.833,147.5 246.167,147.5 257.5,147.5C 256.535,152.443 255.868,157.443 255.5,162.5C 252.775,166.761 249.775,170.927 246.5,175C 233.336,180.166 223.836,176.333 218,163.5C 217.501,158.177 217.334,152.844 217.5,147.5C 218.5,147.5 219.5,147.5 220.5,147.5 Z"/></g>
<g><path style="opacity:1" fill="#7b5d69" d="M 142.5,143.5 C 142.5,144.833 142.5,146.167 142.5,147.5C 141.509,154.313 141.175,161.313 141.5,168.5C 141.167,168.5 140.833,168.5 140.5,168.5C 139.865,159.766 140.532,151.433 142.5,143.5 Z"/></g>
<g><path style="opacity:1" fill="#ddd350" d="M 300.5,154.5 C 299.504,154.586 298.671,154.252 298,153.5C 297.505,151.527 297.338,149.527 297.5,147.5C 297.33,145.152 296.997,142.818 296.5,140.5C 296.783,137.258 297.617,136.924 299,139.5C 300.25,144.42 300.75,149.42 300.5,154.5 Z"/></g>
<g><path style="opacity:1" fill="#dfbf5b" d="M 214.5,104.5 C 214.833,120.181 214.499,135.848 213.5,151.5C 211.551,155.962 210.551,160.629 210.5,165.5C 209.5,165.5 208.5,165.5 207.5,165.5C 205.546,173.012 200.546,177.012 192.5,177.5C 183.146,177.64 176.98,173.306 174,164.5C 172.774,157.403 171.608,150.403 170.5,143.5C 171.167,142.5 171.833,141.5 172.5,140.5C 172.5,142.833 172.5,145.167 172.5,147.5C 184.167,147.5 195.833,147.5 207.5,147.5C 207.333,135.495 207.5,123.495 208,111.5C 208.313,124.514 208.813,137.514 209.5,150.5C 210.822,150.67 211.989,150.337 213,149.5C 213.169,134.328 213.669,119.328 214.5,104.5 Z"/></g>
<g><path style="opacity:1" fill="#9f94b3" d="M 322.5,127.5 C 324.591,129.48 326.424,131.814 328,134.5C 328.638,137.764 329.804,140.764 331.5,143.5C 330.325,143.719 329.325,143.386 328.5,142.5C 328.347,138.495 326.847,135.162 324,132.5C 322.991,130.975 322.491,129.308 322.5,127.5 Z"/></g>
<g><path style="opacity:1" fill="#69baf3" d="M 143.5,137.5 C 143.5,138.833 143.5,140.167 143.5,141.5C 143.672,142.492 143.338,143.158 142.5,143.5C 140.532,151.433 139.865,159.766 140.5,168.5C 139.698,167.048 139.198,165.382 139,163.5C 136.868,167.208 136.035,171.208 136.5,175.5C 135.167,175.5 133.833,175.5 132.5,175.5C 133.966,170.307 134.633,164.973 134.5,159.5C 135.5,159.5 136.5,159.5 137.5,159.5C 136.795,154.109 136.795,148.776 137.5,143.5C 136.167,143.5 134.833,143.5 133.5,143.5C 133.178,148.727 133.178,154.061 133.5,159.5C 132.167,159.5 130.833,159.5 129.5,159.5C 129.5,154.167 129.5,148.833 129.5,143.5C 130.5,143.5 131.5,143.5 132.5,143.5C 131.167,134.833 134.833,131.167 143.5,132.5C 143.5,134.167 143.5,135.833 143.5,137.5 Z"/></g>
<g><path style="opacity:1" fill="#a788a2" d="M 149.5,127.5 C 149.833,127.5 150.167,127.5 150.5,127.5C 149.361,130.004 148.694,132.67 148.5,135.5C 147.31,137.869 145.643,139.869 143.5,141.5C 143.5,140.167 143.5,138.833 143.5,137.5C 144.458,137.047 145.292,136.381 146,135.5C 147.093,132.691 148.26,130.024 149.5,127.5 Z"/></g>
<g><path style="opacity:1" fill="#e4625c" d="M 289.5,104.5 C 296.532,104.17 303.532,104.503 310.5,105.5C 312.086,107.173 312.753,109.173 312.5,111.5C 313.5,111.5 314.5,111.5 315.5,111.5C 315.34,113.199 315.506,114.866 316,116.5C 318.312,120.173 320.478,123.84 322.5,127.5C 322.491,129.308 322.991,130.975 324,132.5C 326.847,135.162 328.347,138.495 328.5,142.5C 329.325,143.386 330.325,143.719 331.5,143.5C 331.5,144.833 331.5,146.167 331.5,147.5C 322.167,147.5 312.833,147.5 303.5,147.5C 302.8,143.202 302.467,138.869 302.5,134.5C 301.041,134.567 299.708,134.234 298.5,133.5C 296.914,128.71 295.247,124.043 293.5,119.5C 292.975,114.262 291.642,109.262 289.5,104.5 Z"/></g>
<g><path style="opacity:1" fill="#fcde67" d="M 214.5,103.5 C 214.5,103.833 214.5,104.167 214.5,104.5C 213.669,119.328 213.169,134.328 213,149.5C 211.989,150.337 210.822,150.67 209.5,150.5C 208.813,137.514 208.313,124.514 208,111.5C 207.5,123.495 207.333,135.495 207.5,147.5C 195.833,147.5 184.167,147.5 172.5,147.5C 172.5,145.167 172.5,142.833 172.5,140.5C 176.333,128.659 180,116.659 183.5,104.5C 193.653,103.506 203.986,103.172 214.5,103.5 Z"/></g>
<g><path style="opacity:1" fill="#cc6c6f" d="M 159.5,111.5 C 159.664,114.187 159.497,116.854 159,119.5C 158,118.167 157,118.167 156,119.5C 156.121,122.921 154.788,125.588 152,127.5C 151.667,129.5 151.333,131.5 151,133.5C 150.292,134.381 149.458,135.047 148.5,135.5C 148.694,132.67 149.361,130.004 150.5,127.5C 152.461,124.139 153.961,120.472 155,116.5C 156.417,114.602 157.917,112.936 159.5,111.5 Z"/></g>
<g><path style="opacity:1" fill="#9d99b6" d="M 315.5,111.5 C 319.311,116.079 321.644,121.413 322.5,127.5C 320.478,123.84 318.312,120.173 316,116.5C 315.506,114.866 315.34,113.199 315.5,111.5 Z"/></g>
<g><path style="opacity:1" fill="#fcde65" d="M 287.5,104.5 C 289.05,109.725 291.05,114.725 293.5,119.5C 295.247,124.043 296.914,128.71 298.5,133.5C 301.415,140.424 302.082,147.424 300.5,154.5C 300.75,149.42 300.25,144.42 299,139.5C 297.617,136.924 296.783,137.258 296.5,140.5C 296.997,142.818 297.33,145.152 297.5,147.5C 296.167,147.5 294.833,147.5 293.5,147.5C 285.167,147.5 276.833,147.5 268.5,147.5C 268.5,146.167 268.5,144.833 268.5,143.5C 267.167,143.5 265.833,143.5 264.5,143.5C 264.5,144.833 264.5,146.167 264.5,147.5C 263.167,147.5 261.833,147.5 260.5,147.5C 261.792,133.507 261.792,119.507 260.5,105.5C 261.833,105.5 263.167,105.5 264.5,105.5C 264.5,107.5 264.5,109.5 264.5,111.5C 265.833,111.5 267.167,111.5 268.5,111.5C 268.5,109.167 268.5,106.833 268.5,104.5C 274.833,104.5 281.167,104.5 287.5,104.5 Z"/></g>
<g><path style="opacity:1" fill="#e4615d" d="M 214.5,104.5 C 214.5,104.167 214.5,103.833 214.5,103.5C 229.167,103.5 243.833,103.5 258.5,103.5C 258.5,106.167 258.5,108.833 258.5,111.5C 257.5,111.5 256.5,111.5 255.5,111.5C 255.008,123.619 255.674,135.619 257.5,147.5C 246.167,147.5 234.833,147.5 223.5,147.5C 220.872,134.477 220.872,121.477 223.5,108.5C 233.802,106.847 244.468,105.847 255.5,105.5C 242.517,104.501 229.517,104.168 216.5,104.5C 215.833,104.5 215.167,104.5 214.5,104.5 Z"/></g>
<g><path style="opacity:1" fill="#de6651" d="M 216.5,105.5 C 217.448,109.471 219.781,110.471 223.5,108.5C 220.872,121.477 220.872,134.477 223.5,147.5C 222.5,147.5 221.5,147.5 220.5,147.5C 220.5,146.167 220.5,144.833 220.5,143.5C 219.5,143.5 218.5,143.5 217.5,143.5C 218.143,132.448 217.476,121.781 215.5,111.5C 215.205,109.265 215.539,107.265 216.5,105.5 Z"/></g>
<g><path style="opacity:1" fill="#e4625b" d="M 183.5,104.5 C 180,116.659 176.333,128.659 172.5,140.5C 171.833,141.5 171.167,142.5 170.5,143.5C 168.824,144.183 168.157,145.517 168.5,147.5C 159.833,147.5 151.167,147.5 142.5,147.5C 142.5,146.167 142.5,144.833 142.5,143.5C 143.338,143.158 143.672,142.492 143.5,141.5C 145.643,139.869 147.31,137.869 148.5,135.5C 149.458,135.047 150.292,134.381 151,133.5C 151.333,131.5 151.667,129.5 152,127.5C 154.788,125.588 156.121,122.921 156,119.5C 157,118.167 158,118.167 159,119.5C 159.497,116.854 159.664,114.187 159.5,111.5C 159.5,110.833 159.5,110.167 159.5,109.5C 162.084,108.952 163.084,107.285 162.5,104.5C 169.5,104.5 176.5,104.5 183.5,104.5 Z"/></g>
<g><path style="opacity:1" fill="#f3ac67" d="M 287.5,104.5 C 288.167,104.5 288.833,104.5 289.5,104.5C 291.642,109.262 292.975,114.262 293.5,119.5C 291.05,114.725 289.05,109.725 287.5,104.5 Z"/></g>
<g><path style="opacity:1" fill="#ec5c62" d="M 216.5,104.5 C 229.517,104.168 242.517,104.501 255.5,105.5C 244.468,105.847 233.802,106.847 223.5,108.5C 219.781,110.471 217.448,109.471 216.5,105.5C 216.5,105.167 216.5,104.833 216.5,104.5 Z"/></g>
<g><path style="opacity:1" fill="#6cbaf1" d="M 255.5,102.5 C 224.498,102.333 193.498,102.5 162.5,103C 160.081,104.509 159.081,106.675 159.5,109.5C 159.5,110.167 159.5,110.833 159.5,111.5C 157.917,112.936 156.417,114.602 155,116.5C 153.961,120.472 152.461,124.139 150.5,127.5C 150.167,127.5 149.833,127.5 149.5,127.5C 150.37,123.703 151.703,120.037 153.5,116.5C 151.291,115.937 149.791,114.604 149,112.5C 148.785,109.197 148.618,106.03 148.5,103C 149.543,101.024 150.877,100.524 152.5,101.5C 156.967,100.736 161.467,100.069 166,99.5C 168.27,100.86 170.77,101.527 173.5,101.5C 173.201,99.396 173.534,97.396 174.5,95.5C 176.117,96.6424 177.95,97.309 180,97.5C 183.143,97.4255 186.143,96.7588 189,95.5C 196.193,96.6401 203.359,96.8067 210.5,96C 206.763,97.6675 206.763,99.0009 210.5,100C 204.167,100.333 197.833,100.667 191.5,101C 200.5,101.667 209.5,101.667 218.5,101C 215.84,99.0183 216.34,98.185 220,98.5C 232.131,99.6921 243.965,101.025 255.5,102.5 Z"/></g>
<g><path style="opacity:1" fill="#a98ca6" d="M 289.5,102.5 C 295.833,102.5 302.167,102.5 308.5,102.5C 309.822,102.33 310.989,102.663 312,103.5C 312.921,106.336 314.088,109.002 315.5,111.5C 314.5,111.5 313.5,111.5 312.5,111.5C 312.753,109.173 312.086,107.173 310.5,105.5C 303.532,104.503 296.532,104.17 289.5,104.5C 288.833,104.5 288.167,104.5 287.5,104.5C 287.5,104.167 287.5,103.833 287.5,103.5C 288.492,103.672 289.158,103.338 289.5,102.5 Z"/></g>
<g><path style="opacity:1" fill="#9d9faf" d="M 255.5,102.5 C 256.833,102.5 258.167,102.5 259.5,102.5C 269.5,102.5 279.5,102.5 289.5,102.5C 289.158,103.338 288.492,103.672 287.5,103.5C 277.833,103.5 268.167,103.5 258.5,103.5C 243.833,103.5 229.167,103.5 214.5,103.5C 203.986,103.172 193.653,103.506 183.5,104.5C 176.5,104.5 169.5,104.5 162.5,104.5C 163.084,107.285 162.084,108.952 159.5,109.5C 159.081,106.675 160.081,104.509 162.5,103C 193.498,102.5 224.498,102.333 255.5,102.5 Z"/></g>
<g><path style="opacity:1" fill="#78b7e0" d="M 308.5,102.5 C 302.167,102.5 295.833,102.5 289.5,102.5C 279.5,102.5 269.5,102.5 259.5,102.5C 271.331,101.646 283.331,100.979 295.5,100.5C 300.093,100.379 304.426,101.046 308.5,102.5 Z"/></g>
<g><path style="opacity:1" fill="#7b4860" d="M 331.5,148.5 C 332.655,155.321 332.821,162.321 332,169.5C 330.669,171.996 328.836,173.996 326.5,175.5C 326.343,174.127 326.51,172.793 327,171.5C 328.512,170.743 329.846,169.743 331,168.5C 331.5,161.842 331.666,155.175 331.5,148.5 Z"/></g>
<g><path style="opacity:1" fill="#994440" d="M 303.5,147.5 C 312.833,147.5 322.167,147.5 331.5,147.5C 331.5,147.833 331.5,148.167 331.5,148.5C 331.666,155.175 331.5,161.842 331,168.5C 329.846,169.743 328.512,170.743 327,171.5C 326.51,172.793 326.343,174.127 326.5,175.5C 323.5,175.5 320.5,175.5 317.5,175.5C 317.5,198.167 317.5,220.833 317.5,243.5C 317.5,243.833 317.5,244.167 317.5,244.5C 317.167,244.5 316.833,244.5 316.5,244.5C 316.344,221.46 316.344,198.46 316.5,175.5C 315.5,175.5 314.5,175.5 313.5,175.5C 313.167,175.5 312.833,175.5 312.5,175.5C 310.828,172.978 309.328,170.312 308,167.5C 307.343,162.157 305.843,157.157 303.5,152.5C 303.5,150.833 303.5,149.167 303.5,147.5 Z"/></g>
<g><path style="opacity:1" fill="#8ab8d9" d="M 389.5,149.5 C 392.364,163.261 393.031,177.261 391.5,191.5C 390.833,193.167 390.167,194.833 389.5,196.5C 390.501,180.844 390.501,165.178 389.5,149.5 Z"/></g>
<g><path style="opacity:1" fill="#ca724a" d="M 298.5,133.5 C 299.708,134.234 301.041,134.567 302.5,134.5C 302.467,138.869 302.8,143.202 303.5,147.5C 303.5,149.167 303.5,150.833 303.5,152.5C 302.224,155.03 302.224,157.697 303.5,160.5C 300.496,163.121 298.663,166.454 298,170.5C 295.6,172.415 293.1,174.081 290.5,175.5C 292.851,172.65 295.351,169.984 298,167.5C 299.153,163.213 299.987,158.879 300.5,154.5C 302.082,147.424 301.415,140.424 298.5,133.5 Z"/></g>
<g><path style="opacity:1" fill="#cc5750" d="M 215.5,111.5 C 217.476,121.781 218.143,132.448 217.5,143.5C 218.5,143.5 219.5,143.5 220.5,143.5C 220.5,144.833 220.5,146.167 220.5,147.5C 219.5,147.5 218.5,147.5 217.5,147.5C 217.334,152.844 217.501,158.177 218,163.5C 223.836,176.333 233.336,180.166 246.5,175C 249.775,170.927 252.775,166.761 255.5,162.5C 255.336,165.187 255.503,167.854 256,170.5C 257.415,167.042 257.915,163.375 257.5,159.5C 258.833,159.5 260.167,159.5 261.5,159.5C 265.548,174.964 275.215,180.297 290.5,175.5C 293.1,174.081 295.6,172.415 298,170.5C 298.663,166.454 300.496,163.121 303.5,160.5C 302.224,157.697 302.224,155.03 303.5,152.5C 305.843,157.157 307.343,162.157 308,167.5C 309.328,170.312 310.828,172.978 312.5,175.5C 311.503,196.66 311.169,217.993 311.5,239.5C 311.167,239.5 310.833,239.5 310.5,239.5C 309.833,175.5 309.167,175.5 308.5,239.5C 307.5,239.5 306.5,239.5 305.5,239.5C 305.5,240.5 305.5,241.5 305.5,242.5C 278.233,241.177 250.899,241.177 223.5,242.5C 250.158,243.5 276.825,243.833 303.5,243.5C 303.5,244.5 303.5,245.5 303.5,246.5C 274.761,245.935 246.095,246.602 217.5,248.5C 216.681,245.695 216.181,242.695 216,239.5C 215.572,227.718 215.405,216.051 215.5,204.5C 213.854,203.34 212.021,202.673 210,202.5C 198.608,204.389 187.108,205.056 175.5,204.5C 175.171,217.011 175.505,229.345 176.5,241.5C 176.5,244.5 176.5,247.5 176.5,250.5C 170.925,249.548 165.259,249.214 159.5,249.5C 159.5,249.167 159.5,248.833 159.5,248.5C 157.551,228.331 156.884,207.998 157.5,187.5C 156.237,184.676 156.237,181.843 157.5,179C 157.164,177.97 156.497,177.47 155.5,177.5C 155.5,177.167 155.5,176.833 155.5,176.5C 158.674,175.508 161.174,173.508 163,170.5C 165.736,164.254 167.902,157.92 169.5,151.5C 170.553,157.797 171.553,164.13 172.5,170.5C 176.329,171.651 179.329,173.984 181.5,177.5C 192.1,181.681 201.1,179.681 208.5,171.5C 210.55,172.077 211.55,173.41 211.5,175.5C 212.5,175.5 213.5,175.5 214.5,175.5C 213.148,172.219 212.481,168.719 212.5,165C 213.384,158.401 214.718,151.901 216.5,145.5C 215.543,134.199 215.209,122.865 215.5,111.5 Z"/></g>
<g><path style="opacity:1" fill="#c76346" d="M 214.5,104.5 C 215.167,104.5 215.833,104.5 216.5,104.5C 216.5,104.833 216.5,105.167 216.5,105.5C 215.539,107.265 215.205,109.265 215.5,111.5C 215.209,122.865 215.543,134.199 216.5,145.5C 214.718,151.901 213.384,158.401 212.5,165C 212.481,168.719 213.148,172.219 214.5,175.5C 213.5,175.5 212.5,175.5 211.5,175.5C 211.55,173.41 210.55,172.077 208.5,171.5C 201.1,179.681 192.1,181.681 181.5,177.5C 179.329,173.984 176.329,171.651 172.5,170.5C 171.553,164.13 170.553,157.797 169.5,151.5C 169.768,149.901 169.434,148.568 168.5,147.5C 168.157,145.517 168.824,144.183 170.5,143.5C 171.608,150.403 172.774,157.403 174,164.5C 176.98,173.306 183.146,177.64 192.5,177.5C 200.546,177.012 205.546,173.012 207.5,165.5C 208.5,165.5 209.5,165.5 210.5,165.5C 210.551,160.629 211.551,155.962 213.5,151.5C 214.499,135.848 214.833,120.181 214.5,104.5 Z"/></g>
<g><path style="opacity:1" fill="#c85c4a" d="M 295.5,221.5 C 295.825,213.981 295.492,206.648 294.5,199.5C 292.167,198.833 289.833,198.167 287.5,197.5C 290.5,197.5 293.5,197.5 296.5,197.5C 296.707,194.873 295.54,193.207 293,192.5C 279.998,192.966 266.998,193.299 254,193.5C 253.5,193.167 253,192.833 252.5,192.5C 262.483,191.668 272.483,191.168 282.5,191C 279.211,188.791 275.544,187.958 271.5,188.5C 271.5,187.167 271.5,185.833 271.5,184.5C 273.696,184.41 275.863,184.077 278,183.5C 281.012,184.869 284.179,185.536 287.5,185.5C 287.5,187.5 287.5,189.5 287.5,191.5C 290.144,191.84 292.477,191.173 294.5,189.5C 296.717,190.768 298.717,192.268 300.5,194C 301.448,194.483 302.448,194.649 303.5,194.5C 303.5,198.833 303.5,203.167 303.5,207.5C 302.5,207.5 301.5,207.5 300.5,207.5C 301.092,204.873 301.425,202.206 301.5,199.5C 299.876,199.36 298.71,200.027 298,201.5C 298.917,207.874 298.584,214.207 297,220.5C 296.617,221.056 296.117,221.389 295.5,221.5 Z"/></g>
<g><path style="opacity:1" fill="#88aef2" d="M 319.5,177.5 C 319.5,179.167 319.5,180.833 319.5,182.5C 322.167,182.5 324.833,182.5 327.5,182.5C 327.5,183.5 327.5,184.5 327.5,185.5C 324.833,185.5 322.167,185.5 319.5,185.5C 319.83,204.341 319.497,223.007 318.5,241.5C 318.169,219.993 318.503,198.66 319.5,177.5 Z"/></g>
<g><path style="opacity:1" fill="#9a88a8" d="M 147.5,175.5 C 150.167,175.833 152.833,176.167 155.5,176.5C 155.5,176.833 155.5,177.167 155.5,177.5C 155.5,200.167 155.5,222.833 155.5,245.5C 154.503,227.674 154.17,209.674 154.5,191.5C 154.5,190.833 154.5,190.167 154.5,189.5C 154.5,185.833 154.5,182.167 154.5,178.5C 151.369,179.092 149.036,178.092 147.5,175.5 Z"/></g>
<g><path style="opacity:1" fill="#a06174" d="M 155.5,177.5 C 156.497,177.47 157.164,177.97 157.5,179C 156.237,181.843 156.237,184.676 157.5,187.5C 156.503,206.659 156.17,225.993 156.5,245.5C 156.167,245.5 155.833,245.5 155.5,245.5C 155.5,222.833 155.5,200.167 155.5,177.5 Z"/></g>
<g><path style="opacity:1" fill="#d35545" d="M 313.5,175.5 C 314.5,175.5 315.5,175.5 316.5,175.5C 316.344,198.46 316.344,221.46 316.5,244.5C 316.672,245.492 316.338,246.158 315.5,246.5C 314.5,246.5 313.5,246.5 312.5,246.5C 312.5,244.833 312.5,243.167 312.5,241.5C 313.294,219.631 313.627,197.631 313.5,175.5 Z"/></g>
<g><path style="opacity:1" fill="#8c8ab1" d="M 331.5,143.5 C 332.268,144.263 332.768,145.263 333,146.5C 333.667,155.167 333.667,163.833 333,172.5C 329.4,176.548 324.9,178.215 319.5,177.5C 318.503,198.66 318.169,219.993 318.5,241.5C 318.672,242.492 318.338,243.158 317.5,243.5C 317.5,220.833 317.5,198.167 317.5,175.5C 320.5,175.5 323.5,175.5 326.5,175.5C 328.836,173.996 330.669,171.996 332,169.5C 332.821,162.321 332.655,155.321 331.5,148.5C 331.5,148.167 331.5,147.833 331.5,147.5C 331.5,146.167 331.5,144.833 331.5,143.5 Z"/></g>
<g><path style="opacity:1" fill="#be6040" d="M 287.5,197.5 C 289.833,198.167 292.167,198.833 294.5,199.5C 277.5,199.5 260.5,199.5 243.5,199.5C 243.5,206.833 243.5,214.167 243.5,221.5C 242.357,221.092 241.357,220.425 240.5,219.5C 242.013,217.465 242.679,215.131 242.5,212.5C 241.315,205.501 241.315,198.501 242.5,191.5C 244.167,191.5 245.833,191.5 247.5,191.5C 247.5,193.5 247.5,195.5 247.5,197.5C 260.833,197.5 274.167,197.5 287.5,197.5 Z"/></g>
<g><path style="opacity:1" fill="#fdca7a" d="M 294.5,199.5 C 295.492,206.648 295.825,213.981 295.5,221.5C 278.167,221.5 260.833,221.5 243.5,221.5C 243.5,214.167 243.5,206.833 243.5,199.5C 260.5,199.5 277.5,199.5 294.5,199.5 Z"/></g>
<g><path style="opacity:1" fill="#f8e160" d="M 289.5,200.5 C 291.167,200.5 292.833,200.5 294.5,200.5C 294.5,203.5 294.5,206.5 294.5,209.5C 292.283,210.369 289.95,210.702 287.5,210.5C 287.5,211.5 287.5,212.5 287.5,213.5C 273.122,213.268 258.788,213.268 244.5,213.5C 244.5,212.167 244.5,210.833 244.5,209.5C 258.737,209.738 273.07,209.404 287.5,208.5C 288.167,207.833 288.833,207.167 289.5,206.5C 277.485,206.828 265.319,206.495 253,205.5C 250.73,206.86 248.23,207.527 245.5,207.5C 245.261,205.533 245.594,203.699 246.5,202C 261.006,201.831 275.339,201.331 289.5,200.5 Z"/></g>
<g><path style="opacity:1" fill="#feda70" d="M 289.5,200.5 C 275.339,201.331 261.006,201.831 246.5,202C 245.594,203.699 245.261,205.533 245.5,207.5C 248.23,207.527 250.73,206.86 253,205.5C 265.319,206.495 277.485,206.828 289.5,206.5C 288.833,207.167 288.167,207.833 287.5,208.5C 273.07,209.404 258.737,209.738 244.5,209.5C 244.223,206.552 244.556,203.719 245.5,201C 260.163,200.5 274.83,200.333 289.5,200.5 Z"/></g>
<g><path style="opacity:1" fill="#c55660" d="M 312.5,175.5 C 312.833,175.5 313.167,175.5 313.5,175.5C 313.627,197.631 313.294,219.631 312.5,241.5C 312.672,240.508 312.338,239.842 311.5,239.5C 311.169,217.993 311.503,196.66 312.5,175.5 Z"/></g>
<g><path style="opacity:1" fill="#ba575e" d="M 157.5,187.5 C 156.884,207.998 157.551,228.331 159.5,248.5C 157.5,248.5 156.5,247.5 156.5,245.5C 156.17,225.993 156.503,206.659 157.5,187.5 Z"/></g>
<g><path style="opacity:1" fill="#c1593d" d="M 217.5,248.5 C 217.5,248.833 217.5,249.167 217.5,249.5C 216.5,249.5 215.5,249.5 214.5,249.5C 214.5,235.167 214.5,220.833 214.5,206.5C 201.833,206.5 189.167,206.5 176.5,206.5C 176.5,218.167 176.5,229.833 176.5,241.5C 175.505,229.345 175.171,217.011 175.5,204.5C 187.108,205.056 198.608,204.389 210,202.5C 212.021,202.673 213.854,203.34 215.5,204.5C 215.405,216.051 215.572,227.718 216,239.5C 216.181,242.695 216.681,245.695 217.5,248.5 Z"/></g>
<g><path style="opacity:1" fill="#fed76f" d="M 294.5,209.5 C 294.5,211.167 294.5,212.833 294.5,214.5C 292.167,214.5 289.833,214.5 287.5,214.5C 287.5,215.5 287.5,216.5 287.5,217.5C 273.118,217.268 258.785,217.268 244.5,217.5C 244.5,216.167 244.5,214.833 244.5,213.5C 258.788,213.268 273.122,213.268 287.5,213.5C 287.5,212.5 287.5,211.5 287.5,210.5C 289.95,210.702 292.283,210.369 294.5,209.5 Z"/></g>
<g><path style="opacity:1" fill="#f7e063" d="M 294.5,214.5 C 294.5,216.5 294.5,218.5 294.5,220.5C 277.833,220.5 261.167,220.5 244.5,220.5C 244.5,219.5 244.5,218.5 244.5,217.5C 258.785,217.268 273.118,217.268 287.5,217.5C 287.5,216.5 287.5,215.5 287.5,214.5C 289.833,214.5 292.167,214.5 294.5,214.5 Z"/></g>
<g><path style="opacity:1" fill="#d25545" d="M 310.5,239.5 C 309.521,242.625 309.187,245.958 309.5,249.5C 308.167,249.5 306.833,249.5 305.5,249.5C 305.5,247.167 305.5,244.833 305.5,242.5C 305.5,241.5 305.5,240.5 305.5,239.5C 306.5,239.5 307.5,239.5 308.5,239.5C 309.167,175.5 309.833,175.5 310.5,239.5 Z"/></g>
<g><path style="opacity:1" fill="#e3f8fc" d="M 391.5,191.5 C 390.955,200.838 388.622,209.671 384.5,218C 385.081,218.893 385.415,219.893 385.5,221C 382.498,226.679 379.498,232.346 376.5,238C 377.893,239.301 378.393,240.801 378,242.5C 376.414,243.376 374.914,244.376 373.5,245.5C 372.381,248.952 370.381,251.619 367.5,253.5C 371.053,246.063 374.886,238.729 379,231.5C 382.812,219.9 386.312,208.233 389.5,196.5C 390.167,194.833 390.833,193.167 391.5,191.5 Z"/></g>
<g><path style="opacity:1" fill="#e59260" d="M 214.5,249.5 C 213.833,235.5 213.167,221.5 212.5,207.5C 211.167,207.5 209.833,207.5 208.5,207.5C 199.5,207.5 190.5,207.5 181.5,207.5C 180.5,207.5 179.5,207.5 178.5,207.5C 177.504,221.657 177.171,235.99 177.5,250.5C 177.167,250.5 176.833,250.5 176.5,250.5C 176.5,247.5 176.5,244.5 176.5,241.5C 176.5,229.833 176.5,218.167 176.5,206.5C 189.167,206.5 201.833,206.5 214.5,206.5C 214.5,220.833 214.5,235.167 214.5,249.5 Z"/></g>
<g><path style="opacity:1" fill="#eed58c" d="M 178.5,207.5 C 178.566,221.792 178.566,235.958 178.5,250C 179.448,250.483 180.448,250.649 181.5,250.5C 192.5,250.5 203.5,250.5 214.5,250.5C 214.5,250.833 214.5,251.167 214.5,251.5C 202.167,251.5 189.833,251.5 177.5,251.5C 177.5,251.167 177.5,250.833 177.5,250.5C 177.171,235.99 177.504,221.657 178.5,207.5 Z"/></g>
<g><path style="opacity:1" fill="#f8e160" d="M 178.5,207.5 C 179.5,207.5 180.5,207.5 181.5,207.5C 181.5,219.5 181.5,231.5 181.5,243.5C 190.196,243.248 198.863,242.581 207.5,241.5C 206.829,240.054 205.662,239.388 204,239.5C 199.16,240.134 194.326,240.801 189.5,241.5C 188.446,241.32 187.446,240.987 186.5,240.5C 185.505,234.872 185.171,229.206 185.5,223.5C 186.833,223.5 188.167,223.5 189.5,223.5C 189.5,228.833 189.5,234.167 189.5,239.5C 193.226,239.823 196.893,239.489 200.5,238.5C 199.626,236.253 199.292,233.92 199.5,231.5C 206.018,230.191 208.852,232.858 208,239.5C 208.5,228.839 208.667,218.172 208.5,207.5C 209.833,207.5 211.167,207.5 212.5,207.5C 212.309,221.221 212.309,234.888 212.5,248.5C 202.696,246.473 192.696,245.973 182.5,247C 181.663,248.011 181.33,249.178 181.5,250.5C 180.448,250.649 179.448,250.483 178.5,250C 178.566,235.958 178.566,221.792 178.5,207.5 Z"/></g>
<g><path style="opacity:1" fill="#fddd68" d="M 181.5,207.5 C 190.5,207.5 199.5,207.5 208.5,207.5C 208.667,218.172 208.5,228.839 208,239.5C 208.852,232.858 206.018,230.191 199.5,231.5C 199.292,233.92 199.626,236.253 200.5,238.5C 196.893,239.489 193.226,239.823 189.5,239.5C 189.5,234.167 189.5,228.833 189.5,223.5C 188.167,223.5 186.833,223.5 185.5,223.5C 185.171,229.206 185.505,234.872 186.5,240.5C 187.446,240.987 188.446,241.32 189.5,241.5C 194.326,240.801 199.16,240.134 204,239.5C 205.662,239.388 206.829,240.054 207.5,241.5C 198.863,242.581 190.196,243.248 181.5,243.5C 181.5,231.5 181.5,219.5 181.5,207.5 Z"/></g>
<g><path style="opacity:1" fill="#85aee2" d="M 154.5,191.5 C 154.17,209.674 154.503,227.674 155.5,245.5C 155.833,245.5 156.167,245.5 156.5,245.5C 156.5,247.5 157.5,248.5 159.5,248.5C 159.5,248.833 159.5,249.167 159.5,249.5C 159.5,249.833 159.5,250.167 159.5,250.5C 158.167,250.167 156.833,249.833 155.5,249.5C 154.787,246.76 153.12,244.76 150.5,243.5C 150.977,242.069 151.643,240.736 152.5,239.5C 153.167,223.338 153.833,207.338 154.5,191.5 Z"/></g>
<g><path style="opacity:1" fill="#c05b53" d="M 305.5,242.5 C 305.5,244.833 305.5,247.167 305.5,249.5C 276.167,249.5 246.833,249.5 217.5,249.5C 217.5,249.167 217.5,248.833 217.5,248.5C 246.095,246.602 274.761,245.935 303.5,246.5C 303.5,245.5 303.5,244.5 303.5,243.5C 276.825,243.833 250.158,243.5 223.5,242.5C 250.899,241.177 278.233,241.177 305.5,242.5 Z"/></g>
<g><path style="opacity:1" fill="#fade70" d="M 212.5,207.5 C 213.167,221.5 213.833,235.5 214.5,249.5C 214.5,249.833 214.5,250.167 214.5,250.5C 203.5,250.5 192.5,250.5 181.5,250.5C 181.33,249.178 181.663,248.011 182.5,247C 192.696,245.973 202.696,246.473 212.5,248.5C 212.309,234.888 212.309,221.221 212.5,207.5 Z"/></g>
<g><path style="opacity:1" fill="#b65963" d="M 310.5,239.5 C 310.833,239.5 311.167,239.5 311.5,239.5C 312.338,239.842 312.672,240.508 312.5,241.5C 312.5,243.167 312.5,244.833 312.5,246.5C 313.5,246.5 314.5,246.5 315.5,246.5C 314.694,247.728 313.694,248.728 312.5,249.5C 279.877,250.486 247.21,250.819 214.5,250.5C 214.5,250.167 214.5,249.833 214.5,249.5C 215.5,249.5 216.5,249.5 217.5,249.5C 246.833,249.5 276.167,249.5 305.5,249.5C 306.833,249.5 308.167,249.5 309.5,249.5C 309.187,245.958 309.521,242.625 310.5,239.5 Z"/></g>
<g><path style="opacity:1" fill="#a17287" d="M 159.5,249.5 C 165.259,249.214 170.925,249.548 176.5,250.5C 176.833,250.5 177.167,250.5 177.5,250.5C 177.5,250.833 177.5,251.167 177.5,251.5C 171.5,251.5 165.5,251.5 159.5,251.5C 159.5,251.167 159.5,250.833 159.5,250.5C 159.5,250.167 159.5,249.833 159.5,249.5 Z"/></g>
<g><path style="opacity:1" fill="#a2768a" d="M 312.5,249.5 C 312.389,250.117 312.056,250.617 311.5,251C 279.168,251.5 246.835,251.667 214.5,251.5C 214.5,251.167 214.5,250.833 214.5,250.5C 247.21,250.819 279.877,250.486 312.5,249.5 Z"/></g>
<g><path style="opacity:1" fill="#60bef7" d="M 154.5,189.5 C 154.5,190.167 154.5,190.833 154.5,191.5C 153.833,207.338 153.167,223.338 152.5,239.5C 151.643,240.736 150.977,242.069 150.5,243.5C 153.12,244.76 154.787,246.76 155.5,249.5C 155.5,250.5 155.5,251.5 155.5,252.5C 154.167,252.5 152.833,252.5 151.5,252.5C 151.5,253.5 151.5,254.5 151.5,255.5C 148.753,255.813 146.086,255.48 143.5,254.5C 148.611,254.285 150.944,251.618 150.5,246.5C 148.856,246.714 147.356,246.38 146,245.5C 145.82,243.512 145.986,241.512 146.5,239.5C 147.5,239.5 148.5,239.5 149.5,239.5C 149.5,223.5 149.5,207.5 149.5,191.5C 148.448,191.649 147.448,191.483 146.5,191C 149.063,189.921 151.729,189.421 154.5,189.5 Z"/></g>
<g><path style="opacity:1" fill="#91a9c7" d="M 316.5,244.5 C 316.833,244.5 317.167,244.5 317.5,244.5C 317.762,245.978 317.429,247.311 316.5,248.5C 315.019,249.48 313.685,250.647 312.5,252C 278.989,252.198 245.489,252.698 212,253.5C 194.341,252.895 176.841,252.229 159.5,251.5C 165.5,251.5 171.5,251.5 177.5,251.5C 189.833,251.5 202.167,251.5 214.5,251.5C 246.835,251.667 279.168,251.5 311.5,251C 312.056,250.617 312.389,250.117 312.5,249.5C 313.694,248.728 314.694,247.728 315.5,246.5C 316.338,246.158 316.672,245.492 316.5,244.5 Z"/></g>
<g><path style="opacity:1" fill="#73aad6" d="M 286.5,370.5 C 284.597,372.628 282.931,374.961 281.5,377.5C 286.985,378.167 292.319,378.833 297.5,379.5C 291.833,379.5 286.167,379.5 280.5,379.5C 278.5,380.833 276.5,382.167 274.5,383.5C 273.535,382.279 273.702,380.946 275,379.5C 278.43,378.001 280.43,375.334 281,371.5C 282.699,370.594 284.533,370.261 286.5,370.5 Z"/></g>
<g><path style="opacity:1" fill="#7894ae" d="M 191.5,378.5 C 191.5,378.833 191.5,379.167 191.5,379.5C 180.848,380.196 170.181,380.53 159.5,380.5C 169.99,379.44 180.656,378.774 191.5,378.5 Z"/></g>
<g><path style="opacity:1" fill="#437ba8" d="M 191.5,379.5 C 193.455,380.615 195.288,381.948 197,383.5C 206.288,394.298 215.455,405.298 224.5,416.5C 228.55,420.052 232.383,423.719 236,427.5C 238.298,426.039 240.465,424.372 242.5,422.5C 251.472,411.361 260.972,400.695 271,390.5C 272.418,388.261 273.585,385.928 274.5,383.5C 276.5,382.167 278.5,380.833 280.5,379.5C 277.948,383.43 278.948,384.263 283.5,382C 288.167,381.833 292.833,381.667 297.5,381.5C 310.143,382.72 322.809,383.387 335.5,383.5C 361.856,385.589 387.19,391.756 411.5,402C 422.892,407.69 424.225,415.024 415.5,424C 413.004,425.08 410.67,426.414 408.5,428C 400.226,431.25 391.892,434.25 383.5,437C 359.078,442.303 334.411,445.803 309.5,447.5C 286.164,447.956 262.831,448.623 239.5,449.5C 212.842,448.389 186.175,447.723 159.5,447.5C 143.361,446.563 127.361,444.73 111.5,442C 100.492,440.083 89.8252,437.249 79.5,433.5C 79.5,431.833 79.5,430.167 79.5,428.5C 71.4602,429.798 65.1269,427.298 60.5,421C 52.8012,418.46 51.4679,414.127 56.5,408C 58.6864,406.691 60.8531,406.524 63,407.5C 63.4955,405.527 63.6621,403.527 63.5,401.5C 68.5939,398.708 73.9272,396.208 79.5,394C 92.9065,391.211 106.24,388.211 119.5,385C 132.814,383.169 146.147,381.669 159.5,380.5C 170.181,380.53 180.848,380.196 191.5,379.5 Z"/></g>
<g><path style="opacity:1" fill="#5c83a4" d="M 280.5,379.5 C 286.167,379.5 291.833,379.5 297.5,379.5C 309.174,380.167 320.84,381.001 332.5,382C 333.737,382.232 334.737,382.732 335.5,383.5C 322.809,383.387 310.143,382.72 297.5,381.5C 292.833,381.667 288.167,381.833 283.5,382C 278.948,384.263 277.948,383.43 280.5,379.5 Z"/></g>
<g><path style="opacity:1" fill="#547d9a" d="M 63.5,401.5 C 63.6621,403.527 63.4955,405.527 63,407.5C 60.8531,406.524 58.6864,406.691 56.5,408C 51.4679,414.127 52.8012,418.46 60.5,421C 65.1269,427.298 71.4602,429.798 79.5,428.5C 79.5,430.167 79.5,431.833 79.5,433.5C 73.2147,431.935 67.2147,429.769 61.5,427C 47.6817,417.279 48.3484,408.779 63.5,401.5 Z"/></g>
<g><path style="opacity:1" fill="#5d85a3" d="M 159.5,447.5 C 186.175,447.723 212.842,448.389 239.5,449.5C 262.831,448.623 286.164,447.956 309.5,447.5C 297.058,449.407 284.392,450.574 271.5,451C 233.931,452.332 196.598,451.165 159.5,447.5 Z"/></g>
</svg>
